Fuck the Babysitter Innocent Redhead Honey XXX-=MTR=-

Check out MY latest Uploads:
 
http://thepiratebay.org/user/HDvideos/0/7

Stay updated with us....

Seed after downloading....

EnjoY with HDvideos..

Team Mastitorrents

Say thanks if u like my posts

Give ur valuable feedbacks

Quality Uploads from HDvideos

-=MT=-Uploader-=HDvideos=-

Recommended Player:VLC Player

Format                           : Windows Media
File size                        : 363 MiB
Duration                         : 20mn 18s
Overall bit rate mode            : Constant
Overall bit rate                 : 2 497 Kbps
Maximum Overall bit rate         : 2 510 Kbps
Encoded date                     : UTC 2007-07-24 07:26:48.200

Video
ID                               : 2
Format                           : WMV2
Codec ID                         : WMV2
Codec ID/Info                    : Windows Media Video 8
Description of the codec         : Windows Media Video V8
Duration                         : 20mn 18s
Bit rate mode                    : Constant
Bit rate                         : 2 360 Kbps
Width                            : 720 pixels
Height                           : 480 pixels
Display aspect ratio             : 3:2
Frame rate                       : 29.970 fps
Standard                         : NTSC
Bit depth                        : 8 bits
Bits/(Pixel*Frame)               : 0.228
Stream size                      : 343 MiB (95%)
Language                         : English (US)

Audio
ID                               : 1
Format                           : WMA
Format version                   : Version 2
Codec ID                         : 161
Codec ID/Info                    : Windows Media Audio
Description of the codec         : Windows Media Audio 9.2 - 128 kbps, 48 kHz, stereo 1-pass CBR
Duration                         : 20mn 18s
Bit rate mode                    : Constant
Bit rate                         : 128 Kbps
Channel(s)                       : 2 channels
Sampling rate                    : 48.0 KHz
Bit depth                        : 16 bits
Stream size                      : 18.6 MiB (5%)
Language                         : English (US)
